<svg xmlns="http://www.w3.org/2000/svg" version="1.0" preserveAspectRatio="xMidYMid meet" viewBox="45.65 7 385.35 78">

<g transform="translate(0.000000,305.000000) scale(0.100000,-0.100000)" fill="#000000" stroke="none">
<path d="M3630 2940 l0 -40 300 0 300 0 0 -320 0 -320 40 0 40 0 0 360 0 360 -340 0 -340 0 0 -40z"/>
<path d="M458 2573 c-2 -192 -2 -354 0 -360 3 -10 84 -13 358 -13 l354 0 0 40 0 40 -315 0 -315 0 0 320 0 320 -39 0 -39 0 -4 -347z"/>
<path d="M640 2760 l0 -40 90 0 c83 0 93 -2 115 -25 30 -29 31 -39 5 -65 -17 -17 -33 -20 -115 -20 l-95 0 0 -140 0 -140 40 0 40 0 0 95 0 95 41 0 c72 0 127 20 160 58 29 32 31 40 27 93 -7 101 -52 129 -208 129 l-100 0 0 -40z"/>
<path d="M1040 2655 l0 -145 40 0 40 0 0 145 0 145 -40 0 -40 0 0 -145z"/>
<path d="M1552 2780 c-6 -14 -46 -119 -91 -233 -45 -115 -81 -211 -81 -213 0 -2 20 -4 44 -4 l44 0 41 116 c23 63 41 119 41 124 0 5 4 11 9 14 5 3 21 -29 36 -72 16 -42 37 -101 47 -129 l19 -53 46 0 c32 0 44 4 40 13 -3 6 -42 106 -87 222 -99 254 -96 248 -108 215z"/>
<path d="M1832 2763 l3 -38 140 0 140 0 3 38 3 37 -146 0 -146 0 3 -37z"/>
<path d="M2200 2565 l0 -235 110 0 110 0 0 45 0 45 -65 0 -65 0 0 55 0 55 95 0 95 0 0 40 0 40 -95 0 -95 0 0 55 0 55 65 0 65 0 0 40 0 40 -110 0 -110 0 0 -235z"/>
<path d="M2562 2708 l3 -93 43 -3 42 -3 0 55 0 56 33 0 c49 -1 113 -34 131 -69 19 -36 21 -126 3 -161 -20 -39 -74 -70 -123 -70 l-44 0 0 50 0 50 -45 0 -46 0 3 -92 3 -93 92 1 c174 3 252 65 261 209 11 173 -77 255 -274 255 l-85 0 3 -92z"/>
<path d="M3010 2760 l0 -40 84 0 c47 0 96 -4 110 -10 34 -12 44 -54 21 -80 -16 -17 -31 -20 -117 -20 l-98 0 0 -140 0 -140 40 0 40 0 0 94 0 93 69 5 c114 8 167 58 163 152 -3 90 -63 126 -209 126 l-103 0 0 -40z"/>
<path d="M3582 2780 c-6 -14 -46 -119 -91 -233 -45 -115 -81 -211 -81 -213 0 -2 20 -4 44 -4 l44 0 41 116 c23 63 41 119 41 124 0 5 4 11 9 14 5 3 21 -29 36 -72 16 -42 37 -101 47 -129 l19 -53 46 0 c32 0 44 4 40 13 -3 6 -42 106 -87 222 -99 254 -96 248 -108 215z"/>
<path d="M3870 2655 l0 -145 40 0 40 0 0 145 0 145 -40 0 -40 0 0 -145z"/>
<path d="M1930 2480 l0 -150 45 0 45 0 0 150 0 150 -45 0 -45 0 0 -150z"/>
<path d="M1040 2375 l0 -45 131 0 130 0 -3 43 -3 42 -127 3 -128 3 0 -46z"/>
<path d="M3870 2375 l0 -45 131 0 130 0 -3 43 -3 42 -127 3 -128 3 0 -46z"/>
</g>
</svg>